<svg class="main-svg" xmlns="http://www.w3.org/2000/svg" xmlns:xlink="http://www.w3.org/1999/xlink" width="10800" height="6500" style="" viewBox="0 0 1080 650"><rect x="0" y="0" width="1080" height="650" style="fill: rgb(255, 255, 255); fill-opacity: 1;"/><defs id="defs-7cf9af"><g class="clips"><clipPath id="clip7cf9afxyplot" class="plotclip"><rect width="252.4888888888889" height="470"/></clipPath><clipPath id="clip7cf9afx2y2plot" class="plotclip"><rect width="252.4888888888889" height="470"/></clipPath><clipPath id="clip7cf9afx3y3plot" class="plotclip"><rect width="252.48888888888885" height="470"/></clipPath><clipPath class="axesclip" id="clip7cf9afx"><rect x="80" y="0" width="252.4888888888889" height="650"/></clipPath><clipPath class="axesclip" id="clip7cf9afy"><rect x="0" y="100" width="1080" height="470"/></clipPath><clipPath class="axesclip" id="clip7cf9afxy"><rect x="80" y="100" width="252.4888888888889" height="470"/></clipPath><clipPath class="axesclip" id="clip7cf9afy2"><rect x="0" y="100" width="1080" height="470"/></clipPath><clipPath class="axesclip" id="clip7cf9afxy2"><rect x="80" y="100" width="252.4888888888889" height="470"/></clipPath><clipPath class="axesclip" id="clip7cf9afy3"><rect x="0" y="100" width="1080" height="470"/></clipPath><clipPath class="axesclip" id="clip7cf9afxy3"><rect x="80" y="100" width="252.4888888888889" height="470"/></clipPath><clipPath class="axesclip" id="clip7cf9afx2"><rect x="390.7555555555556" y="0" width="252.4888888888889" height="650"/></clipPath><clipPath class="axesclip" id="clip7cf9afx2y"><rect x="390.7555555555556" y="100" width="252.4888888888889" height="470"/></clipPath><clipPath class="axesclip" id="clip7cf9afx2y2"><rect x="390.7555555555556" y="100" width="252.4888888888889" height="470"/></clipPath><clipPath class="axesclip" id="clip7cf9afx2y3"><rect x="390.7555555555556" y="100" width="252.4888888888889" height="470"/></clipPath><clipPath class="axesclip" id="clip7cf9afx3"><rect x="701.5111111111112" y="0" width="252.48888888888885" height="650"/></clipPath><clipPath class="axesclip" id="clip7cf9afx3y"><rect x="701.5111111111112" y="100" width="252.48888888888885" height="470"/></clipPath><clipPath class="axesclip" id="clip7cf9afx3y2"><rect x="701.5111111111112" y="100" width="252.48888888888885" height="470"/></clipPath><clipPath class="axesclip" id="clip7cf9afx3y3"><rect x="701.5111111111112" y="100" width="252.48888888888885" height="470"/></clipPath></g><g class="gradients"/><g class="patterns"/></defs><g class="bglayer"/><g class="layer-below"><g class="imagelayer"/><g class="shapelayer"/></g><g class="cartesianlayer"><g class="subplot xy"><g class="layer-subplot"><g class="shapelayer"/><g class="imagelayer"/></g><g class="minor-gridlayer"><g class="x"/><g class="y"/></g><g class="gridlayer"><g class="x"><path class="xgrid crisp" transform="translate(156.82,0)" d="M0,100v470" style="stroke: rgb(235, 240, 248); stroke-opacity: 1; stroke-width: 1px;"/><path class="xgrid crisp" transform="translate(233.64,0)" d="M0,100v470" style="stroke: rgb(235, 240, 248); stroke-opacity: 1; stroke-width: 1px;"/><path class="xgrid crisp" transform="translate(310.46000000000004,0)" d="M0,100v470" style="stroke: rgb(235, 240, 248); stroke-opacity: 1; stroke-width: 1px;"/></g><g class="y"><path class="ygrid crisp" transform="translate(0,527.27)" d="M80,0h252.4888888888889" style="stroke: rgb(235, 240, 248); stroke-opacity: 1; stroke-width: 1px;"/><path class="ygrid crisp" transform="translate(0,484.55)" d="M80,0h252.4888888888889" style="stroke: rgb(235, 240, 248); stroke-opacity: 1; stroke-width: 1px;"/><path class="ygrid crisp" transform="translate(0,441.82)" d="M80,0h252.4888888888889" style="stroke: rgb(235, 240, 248); stroke-opacity: 1; stroke-width: 1px;"/><path class="ygrid crisp" transform="translate(0,399.09)" d="M80,0h252.4888888888889" style="stroke: rgb(235, 240, 248); stroke-opacity: 1; stroke-width: 1px;"/><path class="ygrid crisp" transform="translate(0,356.36)" d="M80,0h252.4888888888889" style="stroke: rgb(235, 240, 248); stroke-opacity: 1; stroke-width: 1px;"/><path class="ygrid crisp" transform="translate(0,313.64)" d="M80,0h252.4888888888889" style="stroke: rgb(235, 240, 248); stroke-opacity: 1; stroke-width: 1px;"/><path class="ygrid crisp" transform="translate(0,270.90999999999997)" d="M80,0h252.4888888888889" style="stroke: rgb(235, 240, 248); stroke-opacity: 1; stroke-width: 1px;"/><path class="ygrid crisp" transform="translate(0,228.18)" d="M80,0h252.4888888888889" style="stroke: rgb(235, 240, 248); stroke-opacity: 1; stroke-width: 1px;"/><path class="ygrid crisp" transform="translate(0,185.45)" d="M80,0h252.4888888888889" style="stroke: rgb(235, 240, 248); stroke-opacity: 1; stroke-width: 1px;"/><path class="ygrid crisp" transform="translate(0,142.73)" d="M80,0h252.4888888888889" style="stroke: rgb(235, 240, 248); stroke-opacity: 1; stroke-width: 1px;"/></g></g><g class="zerolinelayer"><path class="xzl zl crisp" transform="translate(80,0)" d="M0,100v470" style="stroke: rgb(235, 240, 248); stroke-opacity: 1; stroke-width: 2px;"/></g><path class="xlines-below"/><path class="ylines-below"/><g class="overlines-below"/><g class="xaxislayer-below"/><g class="yaxislayer-below"/><g class="overaxes-below"/><g class="plot" transform="translate(80,100)" clip-path="url(#clip7cf9afxyplot)"><g class="scatterlayer mlayer"><g class="trace scatter trace63290d" style="stroke-miterlimit: 2; opacity: 0.8;"><g class="fills"/><g class="errorbars"/><g class="lines"/><g class="points"><path class="point" transform="translate(240.47,162.36)" d="M7.5,0A7.5,7.5 0 1,1 0,-7.5A7.5,7.5 0 0,1 7.5,0Z" style="opacity: 1; stroke-width: 2px; fill: rgb(187, 68, 48); fill-opacity: 1; stroke: rgb(0, 0, 0); stroke-opacity: 1;"/><path class="point" transform="translate(128.22,179.45)" d="M7.5,7.5H-7.5V-7.5H7.5Z" style="opacity: 1; stroke-width: 2px; fill: rgb(37, 95, 133); fill-opacity: 1; stroke: rgb(0, 0, 0); stroke-opacity: 1;"/><path class="point" transform="translate(50.78,256.36)" d="M-10.5,0A 14.25,14.25 0 0 1 0,10.5A 14.25,14.25 0 0 1 10.5,0A 14.25,14.25 0 0 1 0,-10.5A 14.25,14.25 0 0 1 -10.5,0Z" style="opacity: 1; stroke-width: 2px; fill: rgb(240, 135, 0); fill-opacity: 1; stroke: rgb(0, 0, 0); stroke-opacity: 1;"/><path class="point" transform="translate(26.53,358.91)" d="M-5.7,0l-2.85,-4.95h5.7l2.85,-4.95l2.85,4.95h5.7l-2.85,4.95l2.85,4.95h-5.7l-2.85,4.95l-2.85,-4.95h-5.7Z" style="opacity: 1; stroke-width: 2px; fill: rgb(0, 145, 173); fill-opacity: 1; stroke: rgb(0, 0, 0); stroke-opacity: 1;"/><path class="point" transform="translate(54.07,316.18)" d="M-10.39,6A 30,30 0 0 1 10.39,6A 30,30 0 0 1 0,-12A 30,30 0 0 1 -10.39,6Z" style="opacity: 1; stroke-width: 2px; fill: rgb(111, 124, 18); fill-opacity: 1; stroke: rgb(0, 0, 0); stroke-opacity: 1;"/></g><g class="text"/></g><g class="trace scatter tracec51868" style="stroke-miterlimit: 2; opacity: 0.8;"><g class="fills"/><g class="errorbars"/><g class="lines"/><g class="points"><path class="point" transform="translate(77.8,170.91)" d="M7.5,0A7.5,7.5 0 1,1 0,-7.5A7.5,7.5 0 0,1 7.5,0Z" style="opacity: 1; stroke: rgb(187, 68, 48); stroke-opacity: 1; stroke-width: 2px; fill: none;"/><path class="point" transform="translate(42.05,213.64)" d="M7.5,7.5H-7.5V-7.5H7.5Z" style="opacity: 1; stroke: rgb(37, 95, 133); stroke-opacity: 1; stroke-width: 2px; fill: none;"/><path class="point" transform="translate(13.8,222.18)" d="M-10.5,0A 14.25,14.25 0 0 1 0,10.5A 14.25,14.25 0 0 1 10.5,0A 14.25,14.25 0 0 1 0,-10.5A 14.25,14.25 0 0 1 -10.5,0Z" style="opacity: 1; stroke: rgb(240, 135, 0); stroke-opacity: 1; stroke-width: 2px; fill: none;"/><path class="point" transform="translate(6.63,401.64)" d="M-5.7,0l-2.85,-4.95h5.7l2.85,-4.95l2.85,4.95h5.7l-2.85,4.95l2.85,4.95h-5.7l-2.85,4.95l-2.85,-4.95h-5.7Z" style="opacity: 1; stroke: rgb(0, 145, 173); stroke-opacity: 1; stroke-width: 2px; fill: none;"/><path class="point" transform="translate(18.68,256.36)" d="M-10.39,6A 30,30 0 0 1 10.39,6A 30,30 0 0 1 0,-12A 30,30 0 0 1 -10.39,6Z" style="opacity: 1; stroke: rgb(111, 124, 18); stroke-opacity: 1; stroke-width: 2px; fill: none;"/></g><g class="text"/></g><g class="trace scatter trace505e9d" style="stroke-miterlimit: 2; opacity: 1;"><g class="fills"/><g class="errorbars"/><g class="lines"/><g class="points"/><g class="text"/></g><g class="trace scatter traceddaaee" style="stroke-miterlimit: 2; opacity: 1;"><g class="fills"/><g class="errorbars"/><g class="lines"/><g class="points"/><g class="text"/></g><g class="trace scatter trace9800b1" style="stroke-miterlimit: 2; opacity: 1;"><g class="fills"/><g class="errorbars"/><g class="lines"/><g class="points"/><g class="text"/></g><g class="trace scatter trace60619d" style="stroke-miterlimit: 2; opacity: 1;"><g class="fills"/><g class="errorbars"/><g class="lines"/><g class="points"/><g class="text"/></g><g class="trace scatter tracee003ac" style="stroke-miterlimit: 2; opacity: 1;"><g class="fills"/><g class="errorbars"/><g class="lines"/><g class="points"/><g class="text"/></g><g class="trace scatter trace92e5ce" style="stroke-miterlimit: 2; opacity: 1;"><g class="fills"/><g class="errorbars"/><g class="lines"/><g class="points"/><g class="text"/></g><g class="trace scatter trace35b60e" style="stroke-miterlimit: 2; opacity: 1;"><g class="fills"/><g class="errorbars"/><g class="lines"/><g class="points"/><g class="text"/></g></g></g><g class="overplot"/><path class="xlines-above crisp" d="M0,0" style="fill: none;"/><path class="ylines-above crisp" d="M0,0" style="fill: none;"/><g class="overlines-above"/><g class="xaxislayer-above"><g class="xtick"><text text-anchor="middle" x="0" y="583" transform="translate(80,0)" style="font-family: 'Open Sans', verdana, arial, sans-serif; font-size: 12px; fill: rgb(0, 0, 0); fill-opacity: 1; white-space: pre; opacity: 1;">0</text></g><g class="xtick"><text text-anchor="middle" x="0" y="583" style="font-family: 'Open Sans', verdana, arial, sans-serif; font-size: 12px; fill: rgb(0, 0, 0); fill-opacity: 1; white-space: pre; opacity: 1;" transform="translate(156.82,0)">20</text></g><g class="xtick"><text text-anchor="middle" x="0" y="583" style="font-family: 'Open Sans', verdana, arial, sans-serif; font-size: 12px; fill: rgb(0, 0, 0); fill-opacity: 1; white-space: pre; opacity: 1;" transform="translate(233.64,0)">40</text></g><g class="xtick"><text text-anchor="middle" x="0" y="583" style="font-family: 'Open Sans', verdana, arial, sans-serif; font-size: 12px; fill: rgb(0, 0, 0); fill-opacity: 1; white-space: pre; opacity: 1;" transform="translate(310.46000000000004,0)">60</text></g></g><g class="yaxislayer-above"><g class="ytick"><text text-anchor="end" x="79" y="4.199999999999999" transform="translate(0,570)" style="font-family: 'Open Sans', verdana, arial, sans-serif; font-size: 12px; fill: rgb(0, 0, 0); fill-opacity: 1; white-space: pre; opacity: 1;">0.45</text></g><g class="ytick"><text text-anchor="end" x="79" y="4.199999999999999" style="font-family: 'Open Sans', verdana, arial, sans-serif; font-size: 12px; fill: rgb(0, 0, 0); fill-opacity: 1; white-space: pre; opacity: 1;" transform="translate(0,527.27)">0.5</text></g><g class="ytick"><text text-anchor="end" x="79" y="4.199999999999999" style="font-family: 'Open Sans', verdana, arial, sans-serif; font-size: 12px; fill: rgb(0, 0, 0); fill-opacity: 1; white-space: pre; opacity: 1;" transform="translate(0,484.55)">0.55</text></g><g class="ytick"><text text-anchor="end" x="79" y="4.199999999999999" style="font-family: 'Open Sans', verdana, arial, sans-serif; font-size: 12px; fill: rgb(0, 0, 0); fill-opacity: 1; white-space: pre; opacity: 1;" transform="translate(0,441.82)">0.6</text></g><g class="ytick"><text text-anchor="end" x="79" y="4.199999999999999" style="font-family: 'Open Sans', verdana, arial, sans-serif; font-size: 12px; fill: rgb(0, 0, 0); fill-opacity: 1; white-space: pre; opacity: 1;" transform="translate(0,399.09)">0.65</text></g><g class="ytick"><text text-anchor="end" x="79" y="4.199999999999999" style="font-family: 'Open Sans', verdana, arial, sans-serif; font-size: 12px; fill: rgb(0, 0, 0); fill-opacity: 1; white-space: pre; opacity: 1;" transform="translate(0,356.36)">0.7</text></g><g class="ytick"><text text-anchor="end" x="79" y="4.199999999999999" style="font-family: 'Open Sans', verdana, arial, sans-serif; font-size: 12px; fill: rgb(0, 0, 0); fill-opacity: 1; white-space: pre; opacity: 1;" transform="translate(0,313.64)">0.75</text></g><g class="ytick"><text text-anchor="end" x="79" y="4.199999999999999" style="font-family: 'Open Sans', verdana, arial, sans-serif; font-size: 12px; fill: rgb(0, 0, 0); fill-opacity: 1; white-space: pre; opacity: 1;" transform="translate(0,270.90999999999997)">0.8</text></g><g class="ytick"><text text-anchor="end" x="79" y="4.199999999999999" style="font-family: 'Open Sans', verdana, arial, sans-serif; font-size: 12px; fill: rgb(0, 0, 0); fill-opacity: 1; white-space: pre; opacity: 1;" transform="translate(0,228.18)">0.85</text></g><g class="ytick"><text text-anchor="end" x="79" y="4.199999999999999" style="font-family: 'Open Sans', verdana, arial, sans-serif; font-size: 12px; fill: rgb(0, 0, 0); fill-opacity: 1; white-space: pre; opacity: 1;" transform="translate(0,185.45)">0.9</text></g><g class="ytick"><text text-anchor="end" x="79" y="4.199999999999999" style="font-family: 'Open Sans', verdana, arial, sans-serif; font-size: 12px; fill: rgb(0, 0, 0); fill-opacity: 1; white-space: pre; opacity: 1;" transform="translate(0,142.73)">0.95</text></g><g class="ytick"><text text-anchor="end" x="79" y="4.199999999999999" style="font-family: 'Open Sans', verdana, arial, sans-serif; font-size: 12px; fill: rgb(0, 0, 0); fill-opacity: 1; white-space: pre; opacity: 1;" transform="translate(0,100)">1</text></g></g><g class="overaxes-above"/></g><g class="subplot x2y2"><g class="layer-subplot"><g class="shapelayer"/><g class="imagelayer"/></g><g class="minor-gridlayer"><g class="x2"/><g class="y2"/></g><g class="gridlayer"><g class="x2"><path class="x2grid crisp" transform="translate(447.8255555555556,0)" d="M0,100v470" style="stroke: rgb(235, 240, 248); stroke-opacity: 1; stroke-width: 1px;"/><path class="x2grid crisp" transform="translate(504.8955555555556,0)" d="M0,100v470" style="stroke: rgb(235, 240, 248); stroke-opacity: 1; stroke-width: 1px;"/><path class="x2grid crisp" transform="translate(561.9655555555556,0)" d="M0,100v470" style="stroke: rgb(235, 240, 248); stroke-opacity: 1; stroke-width: 1px;"/><path class="x2grid crisp" transform="translate(619.0455555555556,0)" d="M0,100v470" style="stroke: rgb(235, 240, 248); stroke-opacity: 1; stroke-width: 1px;"/></g><g class="y2"><path class="y2grid crisp" transform="translate(0,527.27)" d="M390.7555555555556,0h252.4888888888889" style="stroke: rgb(235, 240, 248); stroke-opacity: 1; stroke-width: 1px;"/><path class="y2grid crisp" transform="translate(0,484.55)" d="M390.7555555555556,0h252.4888888888889" style="stroke: rgb(235, 240, 248); stroke-opacity: 1; stroke-width: 1px;"/><path class="y2grid crisp" transform="translate(0,441.82)" d="M390.7555555555556,0h252.4888888888889" style="stroke: rgb(235, 240, 248); stroke-opacity: 1; stroke-width: 1px;"/><path class="y2grid crisp" transform="translate(0,399.09)" d="M390.7555555555556,0h252.4888888888889" style="stroke: rgb(235, 240, 248); stroke-opacity: 1; stroke-width: 1px;"/><path class="y2grid crisp" transform="translate(0,356.36)" d="M390.7555555555556,0h252.4888888888889" style="stroke: rgb(235, 240, 248); stroke-opacity: 1; stroke-width: 1px;"/><path class="y2grid crisp" transform="translate(0,313.64)" d="M390.7555555555556,0h252.4888888888889" style="stroke: rgb(235, 240, 248); stroke-opacity: 1; stroke-width: 1px;"/><path class="y2grid crisp" transform="translate(0,270.90999999999997)" d="M390.7555555555556,0h252.4888888888889" style="stroke: rgb(235, 240, 248); stroke-opacity: 1; stroke-width: 1px;"/><path class="y2grid crisp" transform="translate(0,228.18)" d="M390.7555555555556,0h252.4888888888889" style="stroke: rgb(235, 240, 248); stroke-opacity: 1; stroke-width: 1px;"/><path class="y2grid crisp" transform="translate(0,185.45)" d="M390.7555555555556,0h252.4888888888889" style="stroke: rgb(235, 240, 248); stroke-opacity: 1; stroke-width: 1px;"/><path class="y2grid crisp" transform="translate(0,142.73)" d="M390.7555555555556,0h252.4888888888889" style="stroke: rgb(235, 240, 248); stroke-opacity: 1; stroke-width: 1px;"/></g></g><g class="zerolinelayer"><path class="x2zl zl crisp" transform="translate(390.7555555555556,0)" d="M0,100v470" style="stroke: rgb(235, 240, 248); stroke-opacity: 1; stroke-width: 2px;"/></g><path class="xlines-below"/><path class="ylines-below"/><g class="overlines-below"/><g class="xaxislayer-below"/><g class="yaxislayer-below"/><g class="overaxes-below"/><g class="plot" transform="translate(390.7555555555556,100)" clip-path="url(#clip7cf9afx2y2plot)"><g class="scatterlayer mlayer"><g class="trace scatter trace1d6476" style="stroke-miterlimit: 2; opacity: 0.8;"><g class="fills"/><g class="errorbars"/><g class="lines"/><g class="points"><path class="point" transform="translate(240.47,153.82)" d="M7.5,0A7.5,7.5 0 1,1 0,-7.5A7.5,7.5 0 0,1 7.5,0Z" style="opacity: 1; stroke-width: 2px; fill: rgb(187, 68, 48); fill-opacity: 1; stroke: rgb(0, 0, 0); stroke-opacity: 1;"/><path class="point" transform="translate(182.96,153.82)" d="M7.5,7.5H-7.5V-7.5H7.5Z" style="opacity: 1; stroke-width: 2px; fill: rgb(37, 95, 133); fill-opacity: 1; stroke: rgb(0, 0, 0); stroke-opacity: 1;"/><path class="point" transform="translate(56.8,170.91)" d="M-10.5,0A 14.25,14.25 0 0 1 0,10.5A 14.25,14.25 0 0 1 10.5,0A 14.25,14.25 0 0 1 0,-10.5A 14.25,14.25 0 0 1 -10.5,0Z" style="opacity: 1; stroke-width: 2px; fill: rgb(240, 135, 0); fill-opacity: 1; stroke: rgb(0, 0, 0); stroke-opacity: 1;"/><path class="point" transform="translate(37.49,213.64)" d="M-5.7,0l-2.85,-4.95h5.7l2.85,-4.95l2.85,4.95h5.7l-2.85,4.95l2.85,4.95h-5.7l-2.85,4.95l-2.85,-4.95h-5.7Z" style="opacity: 1; stroke-width: 2px; fill: rgb(0, 145, 173); fill-opacity: 1; stroke: rgb(0, 0, 0); stroke-opacity: 1;"/><path class="point" transform="translate(56.8,170.91)" d="M-10.39,6A 30,30 0 0 1 10.39,6A 30,30 0 0 1 0,-12A 30,30 0 0 1 -10.39,6Z" style="opacity: 1; stroke-width: 2px; fill: rgb(111, 124, 18); fill-opacity: 1; stroke: rgb(0, 0, 0); stroke-opacity: 1;"/></g><g class="text"/></g><g class="trace scatter trace0ac6f5" style="stroke-miterlimit: 2; opacity: 0.8;"><g class="fills"/><g class="errorbars"/><g class="lines"/><g class="points"><path class="point" transform="translate(98.09,170.91)" d="M7.5,0A7.5,7.5 0 1,1 0,-7.5A7.5,7.5 0 0,1 7.5,0Z" style="opacity: 1; stroke: rgb(187, 68, 48); stroke-opacity: 1; stroke-width: 2px; fill: none;"/><path class="point" transform="translate(53.55,170.91)" d="M7.5,7.5H-7.5V-7.5H7.5Z" style="opacity: 1; stroke: rgb(37, 95, 133); stroke-opacity: 1; stroke-width: 2px; fill: none;"/><path class="point" transform="translate(22.36,230.73)" d="M-10.5,0A 14.25,14.25 0 0 1 0,10.5A 14.25,14.25 0 0 1 10.5,0A 14.25,14.25 0 0 1 0,-10.5A 14.25,14.25 0 0 1 -10.5,0Z" style="opacity: 1; stroke: rgb(240, 135, 0); stroke-opacity: 1; stroke-width: 2px; fill: none;"/><path class="point" transform="translate(11.23,230.73)" d="M-5.7,0l-2.85,-4.95h5.7l2.85,-4.95l2.85,4.95h5.7l-2.85,4.95l2.85,4.95h-5.7l-2.85,4.95l-2.85,-4.95h-5.7Z" style="opacity: 1; stroke: rgb(0, 145, 173); stroke-opacity: 1; stroke-width: 2px; fill: none;"/><path class="point" transform="translate(23.18,196.55)" d="M-10.39,6A 30,30 0 0 1 10.39,6A 30,30 0 0 1 0,-12A 30,30 0 0 1 -10.39,6Z" style="opacity: 1; stroke: rgb(111, 124, 18); stroke-opacity: 1; stroke-width: 2px; fill: none;"/></g><g class="text"/></g></g></g><g class="overplot"/><path class="xlines-above crisp" d="M0,0" style="fill: none;"/><path class="ylines-above crisp" d="M0,0" style="fill: none;"/><g class="overlines-above"/><g class="xaxislayer-above"><g class="x2tick"><text text-anchor="middle" x="0" y="583" transform="translate(390.7555555555556,0)" style="font-family: 'Open Sans', verdana, arial, sans-serif; font-size: 12px; fill: rgb(0, 0, 0); fill-opacity: 1; white-space: pre; opacity: 1;">0</text></g><g class="x2tick"><text text-anchor="middle" x="0" y="583" style="font-family: 'Open Sans', verdana, arial, sans-serif; font-size: 12px; fill: rgb(0, 0, 0); fill-opacity: 1; white-space: pre; opacity: 1;" transform="translate(447.8255555555556,0)">50</text></g><g class="x2tick"><text text-anchor="middle" x="0" y="583" style="font-family: 'Open Sans', verdana, arial, sans-serif; font-size: 12px; fill: rgb(0, 0, 0); fill-opacity: 1; white-space: pre; opacity: 1;" transform="translate(504.8955555555556,0)">100</text></g><g class="x2tick"><text text-anchor="middle" x="0" y="583" style="font-family: 'Open Sans', verdana, arial, sans-serif; font-size: 12px; fill: rgb(0, 0, 0); fill-opacity: 1; white-space: pre; opacity: 1;" transform="translate(561.9655555555556,0)">150</text></g><g class="x2tick"><text text-anchor="middle" x="0" y="583" style="font-family: 'Open Sans', verdana, arial, sans-serif; font-size: 12px; fill: rgb(0, 0, 0); fill-opacity: 1; white-space: pre; opacity: 1;" transform="translate(619.0455555555556,0)">200</text></g></g><g class="yaxislayer-above"/><g class="overaxes-above"/></g><g class="subplot x3y3"><g class="layer-subplot"><g class="shapelayer"/><g class="imagelayer"/></g><g class="minor-gridlayer"><g class="x3"/><g class="y3"/></g><g class="gridlayer"><g class="x3"><path class="x3grid crisp" transform="translate(759.0511111111111,0)" d="M0,100v470" style="stroke: rgb(235, 240, 248); stroke-opacity: 1; stroke-width: 1px;"/><path class="x3grid crisp" transform="translate(816.5911111111112,0)" d="M0,100v470" style="stroke: rgb(235, 240, 248); stroke-opacity: 1; stroke-width: 1px;"/><path class="x3grid crisp" transform="translate(874.1311111111112,0)" d="M0,100v470" style="stroke: rgb(235, 240, 248); stroke-opacity: 1; stroke-width: 1px;"/><path class="x3grid crisp" transform="translate(931.6711111111111,0)" d="M0,100v470" style="stroke: rgb(235, 240, 248); stroke-opacity: 1; stroke-width: 1px;"/></g><g class="y3"><path class="y3grid crisp" transform="translate(0,527.27)" d="M701.5111111111112,0h252.48888888888885" style="stroke: rgb(235, 240, 248); stroke-opacity: 1; stroke-width: 1px;"/><path class="y3grid crisp" transform="translate(0,484.55)" d="M701.5111111111112,0h252.48888888888885" style="stroke: rgb(235, 240, 248); stroke-opacity: 1; stroke-width: 1px;"/><path class="y3grid crisp" transform="translate(0,441.82)" d="M701.5111111111112,0h252.48888888888885" style="stroke: rgb(235, 240, 248); stroke-opacity: 1; stroke-width: 1px;"/><path class="y3grid crisp" transform="translate(0,399.09)" d="M701.5111111111112,0h252.48888888888885" style="stroke: rgb(235, 240, 248); stroke-opacity: 1; stroke-width: 1px;"/><path class="y3grid crisp" transform="translate(0,356.36)" d="M701.5111111111112,0h252.48888888888885" style="stroke: rgb(235, 240, 248); stroke-opacity: 1; stroke-width: 1px;"/><path class="y3grid crisp" transform="translate(0,313.64)" d="M701.5111111111112,0h252.48888888888885" style="stroke: rgb(235, 240, 248); stroke-opacity: 1; stroke-width: 1px;"/><path class="y3grid crisp" transform="translate(0,270.90999999999997)" d="M701.5111111111112,0h252.48888888888885" style="stroke: rgb(235, 240, 248); stroke-opacity: 1; stroke-width: 1px;"/><path class="y3grid crisp" transform="translate(0,228.18)" d="M701.5111111111112,0h252.48888888888885" style="stroke: rgb(235, 240, 248); stroke-opacity: 1; stroke-width: 1px;"/><path class="y3grid crisp" transform="translate(0,185.45)" d="M701.5111111111112,0h252.48888888888885" style="stroke: rgb(235, 240, 248); stroke-opacity: 1; stroke-width: 1px;"/><path class="y3grid crisp" transform="translate(0,142.73)" d="M701.5111111111112,0h252.48888888888885" style="stroke: rgb(235, 240, 248); stroke-opacity: 1; stroke-width: 1px;"/></g></g><g class="zerolinelayer"><path class="x3zl zl crisp" transform="translate(701.5111111111112,0)" d="M0,100v470" style="stroke: rgb(235, 240, 248); stroke-opacity: 1; stroke-width: 2px;"/></g><path class="xlines-below"/><path class="ylines-below"/><g class="overlines-below"/><g class="xaxislayer-below"/><g class="yaxislayer-below"/><g class="overaxes-below"/><g class="plot" transform="translate(701.5111111111112,100)" clip-path="url(#clip7cf9afx3y3plot)"><g class="scatterlayer mlayer"><g class="trace scatter traceb6f8cd" style="stroke-miterlimit: 2; opacity: 0.8;"><g class="fills"/><g class="errorbars"/><g class="lines"/><g class="points"><path class="point" transform="translate(240.47,68.36)" d="M7.5,0A7.5,7.5 0 1,1 0,-7.5A7.5,7.5 0 0,1 7.5,0Z" style="opacity: 1; stroke-width: 2px; fill: rgb(187, 68, 48); fill-opacity: 1; stroke: rgb(0, 0, 0); stroke-opacity: 1;"/><path class="point" transform="translate(145.23,68.36)" d="M7.5,7.5H-7.5V-7.5H7.5Z" style="opacity: 1; stroke-width: 2px; fill: rgb(37, 95, 133); fill-opacity: 1; stroke: rgb(0, 0, 0); stroke-opacity: 1;"/><path class="point" transform="translate(57.54,68.36)" d="M-10.5,0A 14.25,14.25 0 0 1 0,10.5A 14.25,14.25 0 0 1 10.5,0A 14.25,14.25 0 0 1 0,-10.5A 14.25,14.25 0 0 1 -10.5,0Z" style="opacity: 1; stroke-width: 2px; fill: rgb(240, 135, 0); fill-opacity: 1; stroke: rgb(0, 0, 0); stroke-opacity: 1;"/></g><g class="text"/></g><g class="trace scatter trace9bc3c1" style="stroke-miterlimit: 2; opacity: 0.8;"><g class="fills"/><g class="errorbars"/><g class="lines"/><g class="points"><path class="point" transform="translate(76.35,76.91)" d="M7.5,0A7.5,7.5 0 1,1 0,-7.5A7.5,7.5 0 0,1 7.5,0Z" style="opacity: 1; stroke: rgb(187, 68, 48); stroke-opacity: 1; stroke-width: 2px; fill: none;"/><path class="point" transform="translate(31.14,76.91)" d="M7.5,7.5H-7.5V-7.5H7.5Z" style="opacity: 1; stroke: rgb(37, 95, 133); stroke-opacity: 1; stroke-width: 2px; fill: none;"/><path class="point" transform="translate(17.55,76.91)" d="M-10.5,0A 14.25,14.25 0 0 1 0,10.5A 14.25,14.25 0 0 1 10.5,0A 14.25,14.25 0 0 1 0,-10.5A 14.25,14.25 0 0 1 -10.5,0Z" style="opacity: 1; stroke: rgb(240, 135, 0); stroke-opacity: 1; stroke-width: 2px; fill: none;"/></g><g class="text"/></g></g></g><g class="overplot"/><path class="xlines-above crisp" d="M0,0" style="fill: none;"/><path class="ylines-above crisp" d="M0,0" style="fill: none;"/><g class="overlines-above"/><g class="xaxislayer-above"><g class="x3tick"><text text-anchor="middle" x="0" y="583" transform="translate(701.5111111111112,0)" style="font-family: 'Open Sans', verdana, arial, sans-serif; font-size: 12px; fill: rgb(0, 0, 0); fill-opacity: 1; white-space: pre; opacity: 1;">0</text></g><g class="x3tick"><text text-anchor="middle" x="0" y="583" style="font-family: 'Open Sans', verdana, arial, sans-serif; font-size: 12px; fill: rgb(0, 0, 0); fill-opacity: 1; white-space: pre; opacity: 1;" transform="translate(759.0511111111111,0)">500</text></g><g class="x3tick"><text text-anchor="middle" x="0" y="583" style="font-family: 'Open Sans', verdana, arial, sans-serif; font-size: 12px; fill: rgb(0, 0, 0); fill-opacity: 1; white-space: pre; opacity: 1;" transform="translate(816.5911111111112,0)">1000</text></g><g class="x3tick"><text text-anchor="middle" x="0" y="583" style="font-family: 'Open Sans', verdana, arial, sans-serif; font-size: 12px; fill: rgb(0, 0, 0); fill-opacity: 1; white-space: pre; opacity: 1;" transform="translate(874.1311111111112,0)">1500</text></g><g class="x3tick"><text text-anchor="middle" x="0" y="583" style="font-family: 'Open Sans', verdana, arial, sans-serif; font-size: 12px; fill: rgb(0, 0, 0); fill-opacity: 1; white-space: pre; opacity: 1;" transform="translate(931.6711111111111,0)">2000</text></g></g><g class="yaxislayer-above"/><g class="overaxes-above"/></g></g><g class="polarlayer"/><g class="smithlayer"/><g class="ternarylayer"/><g class="geolayer"/><g class="funnelarealayer"/><g class="pielayer"/><g class="iciclelayer"/><g class="treemaplayer"/><g class="sunburstlayer"/><g class="glimages"/><defs id="topdefs-7cf9af"><g class="clips"/><clipPath id="legend7cf9af"><rect width="97" height="143" x="0" y="0"/></clipPath></defs><g class="layer-above"><g class="imagelayer"/><g class="shapelayer"><path data-index="0" fill-rule="evenodd" d="M80,194L320.47,194" clip-path="url(#clip7cf9afxy)" style="opacity: 1; stroke: rgb(128, 128, 128); stroke-opacity: 1; fill: rgb(0, 0, 0); fill-opacity: 0; stroke-dasharray: 9px, 9px; stroke-width: 1px;"/><path data-index="1" fill-rule="evenodd" d="M205.64,552.9100000000001L205.64,117.09" clip-path="url(#clip7cf9afxy)" style="opacity: 1; stroke: rgb(128, 128, 128); stroke-opacity: 1; fill: rgb(0, 0, 0); fill-opacity: 0; stroke-dasharray: 9px, 9px; stroke-width: 1px;"/><path data-index="2" fill-rule="evenodd" d="M390.7555555555556,236.73L631.2255555555556,236.73" clip-path="url(#clip7cf9afx2y2)" style="opacity: 1; stroke: rgb(128, 128, 128); stroke-opacity: 1; fill: rgb(0, 0, 0); fill-opacity: 0; stroke-dasharray: 9px, 9px; stroke-width: 1px;"/><path data-index="3" fill-rule="evenodd" d="M473.9855555555556,552.9100000000001L473.9855555555556,117.09" clip-path="url(#clip7cf9afx2y2)" style="opacity: 1; stroke: rgb(128, 128, 128); stroke-opacity: 1; fill: rgb(0, 0, 0); fill-opacity: 0; stroke-dasharray: 9px, 9px; stroke-width: 1px;"/><path data-index="4" fill-rule="evenodd" d="M701.5111111111112,151.27L941.9811111111112,151.27" clip-path="url(#clip7cf9afx3y3)" style="opacity: 1; stroke: rgb(128, 128, 128); stroke-opacity: 1; fill: rgb(0, 0, 0); fill-opacity: 0; stroke-dasharray: 9px, 9px; stroke-width: 1px;"/><path data-index="5" fill-rule="evenodd" d="M746.4811111111112,552.9100000000001L746.4811111111112,117.09" clip-path="url(#clip7cf9afx3y3)" style="opacity: 1; stroke: rgb(128, 128, 128); stroke-opacity: 1; fill: rgb(0, 0, 0); fill-opacity: 0; stroke-dasharray: 9px, 9px; stroke-width: 1px;"/></g></g><g class="infolayer"><g class="legend" pointer-events="all" transform="translate(971.48,100)"><rect class="bg" shape-rendering="crispEdges" width="97" height="143" x="0" y="0" style="stroke: rgb(68, 68, 68); stroke-opacity: 1; fill: rgb(255, 255, 255); fill-opacity: 1; stroke-width: 0px;"/><g class="scrollbox" transform="" clip-path="url(#legend7cf9af)"><g class="groups"><g class="traces" transform="translate(0,14.5)" style="opacity: 1;"><text class="legendtext" text-anchor="start" x="40" y="4.680000000000001" style="font-family: 'Open Sans', verdana, arial, sans-serif; font-size: 12px; fill: rgb(0, 0, 0); fill-opacity: 1; white-space: pre;">Original</text><g class="layers" style="opacity: 1;"><g class="legendfill"/><g class="legendlines"/><g class="legendsymbols"><g class="legendpoints"><path class="scatterpts" transform="translate(20,0)" d="M5,0A5,5 0 1,1 0,-5A5,5 0 0,1 5,0Z" style="opacity: 1; stroke-width: 0px; fill: rgb(187, 68, 48); fill-opacity: 1;"/></g></g></g><rect class="legendtoggle" x="0" y="-9.5" width="91.703125" height="19" style="fill: rgb(0, 0, 0); fill-opacity: 0;"/></g><g class="traces" transform="translate(0,33.5)" style="opacity: 1;"><text class="legendtext" text-anchor="start" x="40" y="4.680000000000001" style="font-family: 'Open Sans', verdana, arial, sans-serif; font-size: 12px; fill: rgb(0, 0, 0); fill-opacity: 1; white-space: pre;">Pool 50%</text><g class="layers" style="opacity: 1;"><g class="legendfill"/><g class="legendlines"/><g class="legendsymbols"><g class="legendpoints"><path class="scatterpts" transform="translate(20,0)" d="M-3.8,0l-1.9,-3.3h3.8l1.9,-3.3l1.9,3.3h3.8l-1.9,3.3l1.9,3.3h-3.8l-1.9,3.3l-1.9,-3.3h-3.8Z" style="opacity: 1; stroke-width: 0px; fill: rgb(0, 145, 173); fill-opacity: 1;"/></g></g></g><rect class="legendtoggle" x="0" y="-9.5" width="91.703125" height="19" style="fill: rgb(0, 0, 0); fill-opacity: 0;"/></g><g class="traces" transform="translate(0,52.5)" style="opacity: 1;"><text class="legendtext" text-anchor="start" x="40" y="4.680000000000001" style="font-family: 'Open Sans', verdana, arial, sans-serif; font-size: 12px; fill: rgb(0, 0, 0); fill-opacity: 1; white-space: pre;">Pool 70%</text><g class="layers" style="opacity: 1;"><g class="legendfill"/><g class="legendlines"/><g class="legendsymbols"><g class="legendpoints"><path class="scatterpts" transform="translate(20,0)" d="M-6.93,4A 20,20 0 0 1 6.93,4A 20,20 0 0 1 0,-8A 20,20 0 0 1 -6.93,4Z" style="opacity: 1; stroke-width: 0px; fill: rgb(111, 124, 18); fill-opacity: 1;"/></g></g></g><rect class="legendtoggle" x="0" y="-9.5" width="91.703125" height="19" style="fill: rgb(0, 0, 0); fill-opacity: 0;"/></g><g class="traces" transform="translate(0,71.5)" style="opacity: 1;"><text class="legendtext" text-anchor="start" x="40" y="4.680000000000001" style="font-family: 'Open Sans', verdana, arial, sans-serif; font-size: 12px; fill: rgb(0, 0, 0); fill-opacity: 1; white-space: pre;">Step 100</text><g class="layers" style="opacity: 1;"><g class="legendfill"/><g class="legendlines"/><g class="legendsymbols"><g class="legendpoints"><path class="scatterpts" transform="translate(20,0)" d="M5,5H-5V-5H5Z" style="opacity: 1; stroke-width: 0px; fill: rgb(37, 95, 133); fill-opacity: 1;"/></g></g></g><rect class="legendtoggle" x="0" y="-9.5" width="91.703125" height="19" style="fill: rgb(0, 0, 0); fill-opacity: 0;"/></g><g class="traces" transform="translate(0,90.5)" style="opacity: 1;"><text class="legendtext" text-anchor="start" x="40" y="4.680000000000001" style="font-family: 'Open Sans', verdana, arial, sans-serif; font-size: 12px; fill: rgb(0, 0, 0); fill-opacity: 1; white-space: pre;">Step 250</text><g class="layers" style="opacity: 1;"><g class="legendfill"/><g class="legendlines"/><g class="legendsymbols"><g class="legendpoints"><path class="scatterpts" transform="translate(20,0)" d="M-7,0A 9.5,9.5 0 0 1 0,7A 9.5,9.5 0 0 1 7,0A 9.5,9.5 0 0 1 0,-7A 9.5,9.5 0 0 1 -7,0Z" style="opacity: 1; stroke-width: 0px; fill: rgb(240, 135, 0); fill-opacity: 1;"/></g></g></g><rect class="legendtoggle" x="0" y="-9.5" width="91.703125" height="19" style="fill: rgb(0, 0, 0); fill-opacity: 0;"/></g><g class="traces" transform="translate(0,109.5)" style="opacity: 1;"><text class="legendtext" text-anchor="start" x="40" y="4.680000000000001" style="font-family: 'Open Sans', verdana, arial, sans-serif; font-size: 12px; fill: rgb(0, 0, 0); fill-opacity: 1; white-space: pre;">Active</text><g class="layers" style="opacity: 1;"><g class="legendfill"/><g class="legendlines"/><g class="legendsymbols"><g class="legendpoints"><path class="scatterpts" transform="translate(20,0)" d="M5,0A5,5 0 1,1 0,-5A5,5 0 0,1 5,0Z" style="opacity: 1; stroke-width: 0px; fill: rgb(0, 0, 0); fill-opacity: 1;"/></g></g></g><rect class="legendtoggle" x="0" y="-9.5" width="91.703125" height="19" style="fill: rgb(0, 0, 0); fill-opacity: 0;"/></g><g class="traces" transform="translate(0,128.5)" style="opacity: 1;"><text class="legendtext" text-anchor="start" x="40" y="4.680000000000001" style="font-family: 'Open Sans', verdana, arial, sans-serif; font-size: 12px; fill: rgb(0, 0, 0); fill-opacity: 1; white-space: pre;">Random</text><g class="layers" style="opacity: 1;"><g class="legendfill"/><g class="legendlines"/><g class="legendsymbols"><g class="legendpoints"><path class="scatterpts" transform="translate(20,0)" d="M5,0A5,5 0 1,1 0,-5A5,5 0 0,1 5,0Z" style="opacity: 1; stroke: rgb(0, 0, 0); stroke-opacity: 1; stroke-width: 1px; fill: none;"/></g></g></g><rect class="legendtoggle" x="0" y="-9.5" width="91.703125" height="19" style="fill: rgb(0, 0, 0); fill-opacity: 0;"/></g></g></g><rect class="scrollbar" rx="20" ry="3" width="0" height="0" x="0" y="0" style="fill: rgb(128, 139, 164); fill-opacity: 1;"/></g><g class="g-gtitle"/><g class="g-xtitle"/><g class="g-x2title"><text class="x2title" x="517" y="610.3" text-anchor="middle" style="font-family: 'Open Sans', verdana, arial, sans-serif; font-size: 14px; fill: rgb(0, 0, 0); opacity: 1; font-weight: normal; white-space: pre;">Emissions (gr)</text></g><g class="g-x3title"/><g class="g-ytitle"><text class="ytitle" transform="rotate(-90,31.340625000000003,335)" x="31.340625000000003" y="335" text-anchor="middle" style="font-family: 'Open Sans', verdana, arial, sans-serif; font-size: 14px; fill: rgb(0, 0, 0); opacity: 1; font-weight: normal; white-space: pre;">F1</text></g><g class="g-y2title"/><g class="g-y3title"/><g class="annotation" data-index="0" style="opacity: 1;"><g class="annotation-text-g" transform="rotate(0,206.24444444444447,89.5)"><g class="cursor-pointer" transform="translate(166,79)"><rect class="bg" x="0.5" y="0.5" width="80" height="20" style="stroke-width: 1px; stroke: rgb(0, 0, 0); stroke-opacity: 0; fill: rgb(0, 0, 0); fill-opacity: 0;"/><text class="annotation-text" text-anchor="middle" x="40.6875" y="16" style="font-family: 'Open Sans', verdana, arial, sans-serif; font-size: 16px; fill: rgb(0, 0, 0); fill-opacity: 1; white-space: pre;">NewsTopic</text></g></g></g><g class="annotation" data-index="1" style="opacity: 1;"><g class="annotation-text-g" transform="rotate(0,517,89.5)"><g class="cursor-pointer" transform="translate(472,79)"><rect class="bg" x="0.5" y="0.5" width="89" height="20" style="stroke-width: 1px; stroke: rgb(0, 0, 0); stroke-opacity: 0; fill: rgb(0, 0, 0); fill-opacity: 0;"/><text class="annotation-text" text-anchor="middle" x="44.6875" y="16" style="font-family: 'Open Sans', verdana, arial, sans-serif; font-size: 16px; fill: rgb(0, 0, 0); fill-opacity: 1; white-space: pre;">Claimbuster</text></g></g></g><g class="annotation" data-index="2" style="opacity: 1;"><g class="annotation-text-g" transform="rotate(0,827.7555555555556,89.5)"><g class="cursor-pointer" transform="translate(792,79)"><rect class="bg" x="0.5" y="0.5" width="71" height="20" style="stroke-width: 1px; stroke: rgb(0, 0, 0); stroke-opacity: 0; fill: rgb(0, 0, 0); fill-opacity: 0;"/><text class="annotation-text" text-anchor="middle" x="35.796875" y="16" style="font-family: 'Open Sans', verdana, arial, sans-serif; font-size: 16px; fill: rgb(0, 0, 0); fill-opacity: 1; white-space: pre;">AG News</text></g></g></g><g class="annotation" data-index="3" style="opacity: 1;"><g class="annotation-text-g" transform="rotate(0,180.01,185.45)"><g class="cursor-pointer" transform="translate(96,176)"><rect class="bg" x="0.5" y="0.5" width="167" height="17" style="stroke-width: 1px; stroke: rgb(0, 0, 0); stroke-opacity: 0; fill: rgb(0, 0, 0); fill-opacity: 0;"/><text class="annotation-text" text-anchor="start" x="2" y="13" style="font-family: 'Open Sans', verdana, arial, sans-serif; font-size: 12px; fill: rgb(0, 0, 0); fill-opacity: 1; white-space: pre;">Passive Performance Baseline</text></g></g></g><g class="annotation" data-index="4" style="opacity: 1;"><g class="annotation-text-g" transform="rotate(90,218.2,399.09)"><g class="cursor-pointer" transform="translate(144,390)"><rect class="bg" x="0.5" y="0.5" width="147" height="17" style="stroke-width: 1px; stroke: rgb(0, 0, 0); stroke-opacity: 0; fill: rgb(0, 0, 0); fill-opacity: 0;"/><text class="annotation-text" text-anchor="start" x="2" y="13" style="font-family: 'Open Sans', verdana, arial, sans-serif; font-size: 12px; fill: rgb(0, 0, 0); fill-opacity: 1; white-space: pre;">Passive Emission Baseline</text></g></g></g><g class="annotation" data-index="5" style="opacity: 1;"><g class="annotation-text-g" transform="rotate(0,505.65555555555557,228.18)"><g class="cursor-pointer" transform="translate(422,219)"><rect class="bg" x="0.5" y="0.5" width="167" height="17" style="stroke-width: 1px; stroke: rgb(0, 0, 0); stroke-opacity: 0; fill: rgb(0, 0, 0); fill-opacity: 0;"/><text class="annotation-text" text-anchor="start" x="2" y="13" style="font-family: 'Open Sans', verdana, arial, sans-serif; font-size: 12px; fill: rgb(0, 0, 0); fill-opacity: 1; white-space: pre;">Passive Performance Baseline</text></g></g></g><g class="annotation" data-index="6" style="opacity: 1;"><g class="annotation-text-g" transform="rotate(90,482.3055555555556,399.09)"><g class="cursor-pointer" transform="translate(408,390)"><rect class="bg" x="0.5" y="0.5" width="147" height="17" style="stroke-width: 1px; stroke: rgb(0, 0, 0); stroke-opacity: 0; fill: rgb(0, 0, 0); fill-opacity: 0;"/><text class="annotation-text" text-anchor="start" x="2" y="13" style="font-family: 'Open Sans', verdana, arial, sans-serif; font-size: 12px; fill: rgb(0, 0, 0); fill-opacity: 1; white-space: pre;">Passive Emission Baseline</text></g></g></g><g class="annotation" data-index="7" style="opacity: 1;"><g class="annotation-text-g" transform="rotate(0,849.2611111111112,142.73)"><g class="cursor-pointer" transform="translate(765,134)"><rect class="bg" x="0.5" y="0.5" width="167" height="17" style="stroke-width: 1px; stroke: rgb(0, 0, 0); stroke-opacity: 0; fill: rgb(0, 0, 0); fill-opacity: 0;"/><text class="annotation-text" text-anchor="start" x="2" y="13" style="font-family: 'Open Sans', verdana, arial, sans-serif; font-size: 12px; fill: rgb(0, 0, 0); fill-opacity: 1; white-space: pre;">Passive Performance Baseline</text></g></g></g><g class="annotation" data-index="8" style="opacity: 1;"><g class="annotation-text-g" transform="rotate(90,750.9811111111112,399.09)"><g class="cursor-pointer" transform="translate(677,390)"><rect class="bg" x="0.5" y="0.5" width="147" height="17" style="stroke-width: 1px; stroke: rgb(0, 0, 0); stroke-opacity: 0; fill: rgb(0, 0, 0); fill-opacity: 0;"/><text class="annotation-text" text-anchor="start" x="2" y="13" style="font-family: 'Open Sans', verdana, arial, sans-serif; font-size: 12px; fill: rgb(0, 0, 0); fill-opacity: 1; white-space: pre;">Passive Emission Baseline</text></g></g></g></g></svg>